<?xml version="1.0" encoding="utf-8"?>
<!-- Generator: Adobe Illustrator 19.2.0, SVG Export Plug-In . SVG Version: 6.00 Build 0)  -->
<svg version="1.1" id="Layer_1" xmlns="http://www.w3.org/2000/svg" xmlns:xlink="http://www.w3.org/1999/xlink" x="0px" y="0px"
	 viewBox="0 0 500 100" style="enable-background:new 0 0 500 100;" xml:space="preserve">
<style type="text/css">
	.st0{fill:#B72F2E;}
	.st1{font-family:'RobotoCondensed-Bold';}
	.st2{font-size:103.9675px;}
	.st3{fill:#8E8E8E;}
	.st4{opacity:0.15;fill:#010202;enable-background:new    ;}
	.st5{fill:#DDDDDD;}
	.st6{fill:#383838;}
</style>
<text transform="matrix(1 0 0 1 100.4214 88.2617)"><tspan x="0" y="0" class="st0 st1 st2">POKE</tspan><tspan x="230.4" y="0" class="st3 st1 st2">DEX</tspan></text>
<text transform="matrix(1 0 0 1 -212 -271)" style="font-family:'MyriadPro-Regular'; font-size:12px;">/Users/James/Google Drive/code/cf/immersion/cf-pokedex/img/logo.svg</text>
<g>
	<circle class="st3" cx="53" cy="50" r="49"/>
	<path class="st4" d="M101.8,54.4l-25-28.5l-30.5,7.7l1.6,17l-4.3,3.4l-3.3,5.8L27.1,71.2l24.4,27.7c9.6,0.5,18.1-2.5,22.5-4.6
		C88.4,87.6,99.8,73.3,101.8,54.4z"/>
	<g>
		<path class="st5" d="M52.9,83.6c18.6,0,33.7-15.1,33.7-33.7H19.3C19.3,68.5,34.3,83.6,52.9,83.6z"/>
		<path class="st0" d="M52.9,16.3c-18.6,0-33.7,15.1-33.7,33.7h67.4C86.6,31.4,71.5,16.3,52.9,16.3z"/>
		<path class="st6" d="M86.7,50c0-2.2-0.2-3.6-0.2-3.6H49.7v0H19.5c0,0-0.2,1.5-0.2,3.6c0,2.2,0.2,3.6,0.2,3.6h33.5v0h33.5
			C86.4,53.5,86.7,52,86.7,50z"/>
		<circle class="st6" cx="52.9" cy="49.9" r="11.2"/>
		<circle class="st5" cx="52.9" cy="50" r="7.7"/>
	</g>
	<path class="st4" d="M19.3,50c0,18.6,15.1,33.7,33.7,33.7V16.3C34.3,16.3,19.3,31.4,19.3,50z"/>
</g>
</svg>
